<?xml version="1.0" encoding="iso-8859-1"?>
<!-- Uploaded to: SVG Repo, www.svgrepo.com, Generator: SVG Repo Mixer Tools -->
<svg fill="#000000" height="800px" width="800px" version="1.1" id="Layer_1" xmlns="http://www.w3.org/2000/svg" xmlns:xlink="http://www.w3.org/1999/xlink" 
	 viewBox="0 0 512 512" xml:space="preserve">
<g>
	<g>
		<path d="M503.409,281.591h-15.743v-25.199h15.743c4.745,0,8.591-3.845,8.591-8.591c0-4.745-3.845-8.591-8.591-8.591h-15.743
			v-19.963c0-8.546-6.952-15.497-15.496-15.497h-99.48v-46.245h17.372c4.745,0,8.591-3.845,8.591-8.591
			c0-4.745-3.845-8.591-8.591-8.591H364.1H362V74.477h0.573c4.745,0,8.591-3.845,8.591-8.591c0-4.745-3.845-8.591-8.591-8.591
			h-1.383c-0.782-2.856-2.136-5.712-4.068-8.526c-2.01-2.931-3.747-4.477-5.424-5.974c-0.757-0.675-1.539-1.371-2.502-2.33
			c-1.507-1.502-2.943-3.15-4.292-4.912v-9.388c0-4.745-3.845-8.591-8.591-8.591c-4.745,0-8.591,3.845-8.591,8.591v9.169
			c-1.397,1.845-2.893,3.566-4.463,5.13c-0.961,0.958-1.743,1.654-2.5,2.329c-1.679,1.497-3.416,3.044-5.427,5.976
			c-1.931,2.815-3.285,5.672-4.067,8.526h-1.383c-4.745,0-8.591,3.845-8.591,8.591c0,4.745,3.845,8.591,8.591,8.591h0.573v65.848
			h-114.16V74.477h0.573c4.744,0,8.591-3.845,8.591-8.591c0-4.745-3.846-8.591-8.591-8.591h-1.383
			c-0.782-2.858-2.136-5.713-4.067-8.526c-2.01-2.93-3.747-4.477-5.425-5.973c-0.757-0.675-1.539-1.372-2.5-2.33
			c-1.508-1.504-2.945-3.152-4.293-4.913v-9.388c0-4.745-3.846-8.591-8.591-8.591s-8.591,3.845-8.591,8.591v9.169
			c-1.397,1.845-2.893,3.565-4.465,5.131c-0.96,0.956-1.742,1.654-2.499,2.328c-1.679,1.498-3.416,3.044-5.426,5.976
			c-1.932,2.814-3.286,5.671-4.067,8.526h-1.383c-4.744,0-8.591,3.845-8.591,8.591c0,4.745,3.846,8.591,8.591,8.591h0.573v65.848
			h-2.1h-20.617c-4.744,0-8.591,3.845-8.591,8.591c0,4.745,3.846,8.591,8.591,8.591h12.027v46.245H39.83
			c-8.545,0-15.496,6.952-15.496,15.497v19.963H8.591c-4.744,0-8.591,3.845-8.591,8.591c0,4.745,3.846,8.591,8.591,8.591h15.743
			v25.199H8.591c-4.744,0-8.591,3.845-8.591,8.591c0,16.48,10.045,30.658,24.333,36.736v158.917c0,4.745,3.846,8.591,8.591,8.591
			h446.152c4.745,0,8.591-3.845,8.591-8.591V326.918C501.955,320.84,512,306.663,512,290.182
			C512,285.438,508.155,281.591,503.409,281.591z M166.489,55.62c0.844-0.753,1.896-1.69,3.195-2.984
			c0.283-0.282,0.564-0.566,0.842-0.854c0.278,0.289,0.559,0.573,0.841,0.854c1.3,1.295,2.352,2.231,3.196,2.985
			c0.808,0.719,1.312,1.171,1.765,1.675h-11.603C165.177,56.791,165.681,56.339,166.489,55.62z M41.514,220.931h92.548v60.66H73.356
			v-25.199h30.354c4.744,0,8.591-3.845,8.591-8.591c0-4.745-3.846-8.591-8.591-8.591H41.514V220.931z M41.514,256.392h14.66v25.199
			h-14.66V256.392z M18.868,298.773h115.194v14.126H39.898C30.411,312.899,22.262,307.053,18.868,298.773z M134.063,330.08v34.799
			c-8.24-6.854-18.823-10.985-30.353-10.985s-22.113,4.13-30.354,10.985V330.08H134.063z M179.115,477.243H41.514V330.08h14.66
			v71.349v52.547c0,4.745,3.846,8.591,8.591,8.591s8.591-3.845,8.591-8.591v-52.547c0-16.737,13.617-30.353,30.354-30.353
			c16.737,0,30.353,13.617,30.353,30.353v52.547c0,4.745,3.846,8.591,8.591,8.591c4.744,0,8.591-3.845,8.591-8.591v-28.922h27.871
			V477.243z M179.115,407.873h-27.871v-6.444v-79.94v-22.717h27.871V407.873z M179.115,281.591h-27.871v-60.66h27.871V281.591z
			 M179.115,203.75h-27.871v-46.245h2.1h25.772V203.75z M179.115,140.324h-17.181V74.477h17.181V140.324z M276.053,477.244h-46.861
			V376.42c0-12.919,10.51-23.431,23.431-23.431c12.92,0,23.431,10.511,23.431,23.431V477.244z M310.456,477.243h-17.222V376.419
			c0-22.393-18.218-40.612-40.612-40.612c-22.393,0-40.612,18.218-40.612,40.612v100.824h-15.714v-178.47h114.16V477.243z
			 M310.456,281.591h-25.453v-33.79c0-4.745-3.845-8.591-8.591-8.591c-4.745,0-8.591,3.845-8.591,8.591v33.79H240.3v-33.79
			c0-4.745-3.846-8.591-8.591-8.591c-4.744,0-8.591,3.845-8.591,8.591v33.79h-26.822v-60.66h114.16V281.591z M310.456,203.75
			h-114.16v-46.245h114.16V203.75z M372.69,220.931h97.795v18.28h-62.195c-4.745,0-8.591,3.845-8.591,8.591
			c0,4.745,3.845,8.591,8.591,8.591h26.276v25.199H372.69V220.931z M470.486,256.392v25.199h-18.737v-25.199H470.486z
			 M372.69,330.081h60.707v34.799c-8.24-6.854-18.823-10.985-30.354-10.985c-11.531,0-22.113,4.13-30.353,10.985V330.081z
			 M332.193,55.618c0.844-0.751,1.894-1.688,3.196-2.984c0.282-0.281,0.562-0.566,0.84-0.853c0.278,0.289,0.559,0.573,0.842,0.854
			c1.299,1.294,2.35,2.231,3.195,2.984c0.806,0.719,1.311,1.172,1.765,1.676h-11.603C330.88,56.791,331.384,56.339,332.193,55.618z
			 M327.638,74.477h17.181v65.848h-17.181V74.477z M327.638,157.505h25.772h2.1v46.245h-27.871V157.505z M327.638,220.931h27.871
			v60.66h-27.871V220.931z M327.638,298.773h27.871v22.717v79.94v6.444h-27.871V298.773z M470.486,477.244H327.638v-52.188h27.871
			v28.922c0,4.745,3.845,8.591,8.591,8.591c4.745,0,8.591-3.845,8.591-8.591V401.43c0-16.737,13.617-30.353,30.353-30.353
			c16.737,0,30.354,13.617,30.354,30.353v52.547c0,4.745,3.845,8.591,8.591,8.591s8.591-3.845,8.591-8.591V401.43v-71.349h19.907
			V477.244z M472.102,312.899H372.69v-14.126h120.441C489.738,307.053,481.589,312.899,472.102,312.899z"/>
	</g>
</g>
</svg>